<?xml version="1.0" encoding="utf-8"?>
<!-- Generator: Adobe Illustrator 19.1.0, SVG Export Plug-In . SVG Version: 6.00 Build 0)  -->
<svg version="1.1" id="Livello_1" xmlns="http://www.w3.org/2000/svg" xmlns:xlink="http://www.w3.org/1999/xlink" x="0px" y="0px"
	 viewBox="0 0 368 260.4" style="enable-background:new 0 0 368 260.4;" xml:space="preserve">
<style type="text/css">
	.st0{fill:#3F4040;}
	.st1{fill:#48C4DE;}
	.st2{fill:#83D1DE;}
	.st3{fill:url(#SVGID_1_);}
	.st4{fill:url(#SVGID_2_);}
	.st5{fill:url(#SVGID_3_);}
	.st6{fill:#CDCDCD;}
	.st7{fill:#D9D9D9;}
	.st8{fill:url(#SVGID_4_);}
	.st9{fill:url(#SVGID_5_);}
	.st10{fill:url(#SVGID_6_);}
	.st11{fill:#231F20;}
	.st12{clip-path:url(#SVGID_8_);}
	.st13{clip-path:url(#SVGID_10_);}
	.st14{clip-path:url(#SVGID_12_);}
	.st15{fill:#FFFFFF;}
	.st16{opacity:0.9;fill:#FFFFFF;}
	.st17{opacity:0.6;fill:#FFFFFF;}
	.st18{opacity:0.5;}
	.st19{fill:url(#SVGID_13_);}
	.st20{fill:url(#SVGID_14_);}
</style>
<g>
	<path class="st0" d="M-398.2-145.9c-1.2-0.3-3-0.5-5.6-0.5h-6.7v22.7h3v-9l6.7,0l1.5-0.1l0.7-0.1l0.7-0.2c1.1-0.3,1.9-1,2.4-1.9
		c0.5-0.9,0.8-2.3,0.8-4.3c0-2-0.2-3.4-0.7-4.3C-396-144.9-396.9-145.6-398.2-145.9z M-397.8-139.6c0,2.7-0.5,3.3-0.8,3.4
		c-0.5,0.3-1.2,0.4-2.3,0.4h-6.6v-7.7h6.5c1,0,1.8,0.2,2.4,0.5c0.1,0,0.3,0.2,0.5,0.7C-397.9-141.7-397.8-140.8-397.8-139.6z"/>
	<path class="st0" d="M-381.9-146c-1.3,0.3-2.2,1-2.6,2c-0.5,0.9-0.7,2.4-0.7,4.3v9c0,2,0.2,3.4,0.8,4.4c0.5,0.9,1.3,1.6,2.3,2
		l0.8,0.3l0.6,0.1l1.5,0.1l8.2,0v-3l-8.1,0c-1.4-0.1-2-0.3-2.3-0.5c-0.2-0.1-0.8-0.7-0.8-3.4v-2.9h11.3v-3.1h-11.3v-3
		c0-2.7,0.5-3.3,0.7-3.4c0.4-0.2,1.1-0.3,2.1-0.4l8.5,0v-3h-5.4C-378.9-146.4-380.7-146.3-381.9-146z"/>
	<path class="st0" d="M-357.4-146c-1.3,0.3-2.2,1-2.6,2c-0.5,0.9-0.7,2.4-0.7,4.3v9c0,2,0.2,3.4,0.8,4.4c0.5,0.9,1.3,1.6,2.3,2
		l0.8,0.3l0.6,0.1l1.5,0.1l8.2,0v-3l-8.1,0c-1.4-0.1-2-0.3-2.3-0.5c-0.2-0.1-0.8-0.7-0.8-3.4v-2.9h11.3v-3.1h-11.3v-3
		c0-2.7,0.5-3.3,0.7-3.4c0.4-0.2,1.1-0.3,2.1-0.4l8.5,0v-3h-5.4C-354.4-146.4-356.2-146.3-357.4-146z"/>
	<path class="st0" d="M-324.8-133.3c1-0.4,1.8-1,2.4-1.9c0.5-0.9,0.7-2.3,0.7-4.4c0-2.1-0.3-3.5-0.8-4.5c-0.6-1-1.5-1.7-2.7-1.9
		c-1.1-0.2-2.8-0.4-5.1-0.4h-7v22.7h3v-9l6.1,0l4.2,9.1h3.2l-4.4-9.4L-324.8-133.3z M-324.6-139.6c0,1.7-0.2,2.4-0.3,2.7
		c-0.2,0.5-0.4,0.7-0.5,0.8c-0.4,0.2-1.2,0.4-2.2,0.5h-6.6v-7.7l6.9,0c1.2,0.1,1.8,0.3,2,0.4C-325.2-142.9-324.6-142.4-324.6-139.6z
		"/>
	<polygon class="st0" points="-281.9,-145.2 -286.5,-137.2 -291.1,-145.2 -291.9,-146.4 -294.4,-146.4 -294.4,-123.7 -291.5,-123.7 
		-291.5,-140.2 -287.7,-133.6 -285.3,-133.6 -281.4,-140.2 -281.4,-123.7 -278.6,-123.7 -278.6,-146.4 -281.1,-146.4 	"/>
	<path class="st0" d="M-252.9-143.2L-252.9-143.2c-0.2-0.7-0.6-1.3-1.1-1.8c-0.4-0.4-0.9-0.7-1.6-0.9c-0.5-0.2-1.3-0.3-2.2-0.4
		c-1.9-0.2-3.7-0.2-5.6,0c-1,0.1-1.7,0.2-2.2,0.4c-0.7,0.2-1.2,0.6-1.6,1c-0.5,0.5-0.9,1.1-1.1,1.8c-0.2,0.7-0.4,1.6-0.4,2.8l0,10.5
		c0.1,1.1,0.2,2.1,0.4,2.8c0.2,0.8,0.6,1.4,1.1,1.8c0.4,0.4,1,0.7,1.7,0.9c0.5,0.2,1.2,0.3,2.2,0.4c0.9,0.1,1.9,0.1,2.8,0.1
		c0.9,0,1.9,0,2.8-0.1c1-0.1,1.7-0.2,2.2-0.4c0.7-0.3,1.2-0.6,1.6-0.9c0.5-0.5,0.9-1.1,1.2-1.8c0.2-0.7,0.4-1.6,0.4-2.8l0-10.6
		C-252.6-141.6-252.7-142.5-252.9-143.2z M-255.4-140.6v11c-0.1,1.2-0.3,1.8-0.4,2c-0.1,0-0.2,0.1-0.3,0.2c-0.3,0.2-0.8,0.4-1.5,0.5
		c-0.7,0.2-1.7,0.2-3,0.2c-1.1,0-2-0.1-2.7-0.2c-0.7-0.1-1.2-0.3-1.6-0.4c-0.4-0.2-0.4-0.3-0.5-0.3c-0.1-0.2-0.3-0.7-0.4-2.1l0-10.8
		c0.1-1.3,0.3-1.9,0.5-2.2c0,0,0.1-0.1,0.4-0.3c0.3-0.2,0.9-0.3,1.6-0.4c0.7-0.1,1.6-0.2,2.7-0.2c1.3,0,2.3,0.1,3,0.2
		c0.9,0.2,1.3,0.4,1.5,0.5c0.2,0.1,0.3,0.2,0.3,0.2C-255.7-142.4-255.6-141.8-255.4-140.6z"/>
	<path class="st0" d="M-229.7-129.7c-0.1,1.3-0.3,1.8-0.4,2.1c-0.1,0-0.2,0.1-0.3,0.2c-0.2,0.1-0.6,0.3-1.5,0.5
		c-0.7,0.2-1.8,0.2-3,0.2c-1.6,0-2.8-0.1-3.6-0.4c-1.1-0.3-1.2-0.5-1.2-0.5c-0.2-0.3-0.4-0.8-0.5-2.1v-16.8h-3l0,16.6
		c0.1,1.2,0.2,2.1,0.4,2.8c0.2,0.8,0.6,1.4,1.1,1.8c0.4,0.4,1,0.8,1.7,1c0.5,0.2,1.3,0.3,2.2,0.4c0.9,0.1,1.9,0.1,2.8,0.1
		c0.9,0,1.9,0,2.8-0.1c1-0.1,1.7-0.2,2.2-0.4c0.7-0.2,1.2-0.6,1.6-0.9c0.5-0.5,0.9-1.1,1.2-1.8c0.2-0.7,0.4-1.7,0.4-2.8v-16.6h-3
		L-229.7-129.7z"/>
	<polygon class="st0" points="-204.9,-130.5 -214.1,-146.4 -216.4,-146.4 -216.4,-123.7 -213.5,-123.7 -213.5,-139.7 -204.3,-123.7 
		-202,-123.7 -202,-146.4 -204.9,-146.4 	"/>
	<polygon class="st0" points="-191.6,-143.3 -185,-143.3 -185,-123.7 -181.9,-123.7 -181.9,-143.3 -175.2,-143.3 -175.2,-146.4 
		-191.6,-146.4 	"/>
	<path class="st0" d="M-151.1-144.1c-0.5-0.8-1.3-1.5-2.3-1.9c-1-0.4-2.4-0.5-4.3-0.5c-1.8,0-3.2,0.2-4.2,0.5
		c-1.1,0.4-1.9,1-2.4,1.9c-0.5,0.8-0.8,2-0.8,3.7v16.6h3v-9.6h8.9v9.6h3l0-16.7C-150.3-142.1-150.6-143.2-151.1-144.1z
		 M-153.2-140.6v4.2h-8.9l0-4.1c0.1-1.3,0.3-1.9,0.4-2.1c0.2-0.3,1-0.9,4-0.9c3.2,0,3.9,0.6,4.1,0.9
		C-153.5-142.4-153.3-141.9-153.2-140.6z"/>
	<rect x="-138" y="-146.4" class="st0" width="2.9" height="22.7"/>
	<polygon class="st0" points="-111.1,-146.4 -111.1,-130.5 -120.3,-146.4 -122.6,-146.4 -122.6,-123.7 -119.7,-123.7 -119.7,-139.7 
		-110.5,-123.7 -108.2,-123.7 -108.2,-146.4 	"/>
	<path class="st1" d="M-170.8-163.5c0-1.5,0.6-2.9,1.5-3.9l-40.7-70.6c-0.4,0.1-0.8,0.1-1.3,0.1c-0.5,0-0.9,0-1.4-0.1l-42.3,73.3
		c0.1,0.4,0.2,0.8,0.2,1.2H-170.8z"/>
	<path class="st1" d="M-309.6-238l42.3,73.4c-0.1,0.4-0.1,0.7-0.1,1.1h-83.5c0-1.7-0.8-3.2-1.9-4.3l40.5-70.2
		c0.4,0.1,0.9,0.1,1.4,0.1C-310.4-237.9-310-237.9-309.6-238z"/>
	<path class="st2" d="M-261.1-169.6c1.3,0,2.6,0.4,3.6,1.2l41.4-71.6c-0.5-0.6-0.9-1.3-1.1-2h-87.7c-0.3,0.8-0.7,1.5-1.2,2.1
		l41.4,71.6C-263.7-169.1-262.5-169.6-261.1-169.6z"/>
	<linearGradient id="SVGID_1_" gradientUnits="userSpaceOnUse" x1="-261.1075" y1="-335.4389" x2="-261.1075" y2="-227.4839">
		<stop  offset="0" style="stop-color:#48C4DD"/>
		<stop  offset="3.760177e-02" style="stop-color:#4EC6DE"/>
		<stop  offset="0.3424" style="stop-color:#7AD2E4"/>
		<stop  offset="0.6153" style="stop-color:#9ADBE9"/>
		<stop  offset="0.8438" style="stop-color:#AEE0EC"/>
		<stop  offset="1" style="stop-color:#B5E2ED"/>
	</linearGradient>
	<path class="st3" d="M-306.2-248.3c0.6,0.6,1,1.4,1.3,2.2h87.7c0.3-0.8,0.7-1.5,1.3-2.1l-45.1-79.9L-306.2-248.3z"/>
	<g>
		<g>
			<linearGradient id="SVGID_2_" gradientUnits="userSpaceOnUse" x1="-355.5968" y1="-292.6889" x2="-355.5968" y2="-208.6228">
				<stop  offset="0" style="stop-color:#48C4DD"/>
				<stop  offset="1.643407e-02" style="stop-color:#4DC6DE"/>
				<stop  offset="0.126" style="stop-color:#6DCEE2"/>
				<stop  offset="0.2452" style="stop-color:#88D5E6"/>
				<stop  offset="0.3757" style="stop-color:#9CDBE9"/>
				<stop  offset="0.5233" style="stop-color:#AADFEB"/>
				<stop  offset="0.7023" style="stop-color:#B2E1ED"/>
				<stop  offset="1" style="stop-color:#B5E2ED"/>
			</linearGradient>
			<path class="st4" d="M-315.5-248.3c-1,1.1-1.6,2.6-1.6,4.2c0,1.5,0.6,2.9,1.5,4l-40.7,70.5c-0.2,0-0.5,0-0.7,0
				c-3.4,0-6.2,2.7-6.2,6.1h-32.4l64.6-111.9L-315.5-248.3z"/>
		</g>
	</g>
	<g>
		<g>
			<linearGradient id="SVGID_3_" gradientUnits="userSpaceOnUse" x1="-166.6399" y1="-292.6889" x2="-166.6399" y2="-208.6228">
				<stop  offset="0" style="stop-color:#48C4DD"/>
				<stop  offset="1.643407e-02" style="stop-color:#4DC6DE"/>
				<stop  offset="0.126" style="stop-color:#6DCEE2"/>
				<stop  offset="0.2452" style="stop-color:#88D5E6"/>
				<stop  offset="0.3757" style="stop-color:#9CDBE9"/>
				<stop  offset="0.5233" style="stop-color:#AADFEB"/>
				<stop  offset="0.7023" style="stop-color:#B2E1ED"/>
				<stop  offset="1" style="stop-color:#B5E2ED"/>
			</linearGradient>
			<path class="st5" d="M-164.6-169.6c3.4,0,6.2,2.7,6.2,6.1h31.8l-64.6-111.9l-15.6,27c1,1.1,1.7,2.6,1.7,4.2c0,1.6-0.6,3-1.5,4.1
				l40.7,70.6C-165.5-169.6-165-169.6-164.6-169.6z"/>
		</g>
	</g>
</g>
<g>
	<path d="M46.9-146.2c-1.2-0.3-3-0.5-5.6-0.5h-6.7v22.7h3v-9l6.7,0l1.5-0.1l0.7-0.1l0.7-0.2c1.1-0.3,1.9-1,2.4-1.9
		c0.5-0.9,0.8-2.3,0.8-4.3c0-2-0.2-3.4-0.7-4.3C49-145.2,48.1-145.9,46.9-146.2z M47.2-139.8c0,2.7-0.5,3.3-0.8,3.4
		c-0.5,0.3-1.2,0.4-2.3,0.4h-6.6v-7.7h6.5c1,0,1.8,0.2,2.4,0.5c0.1,0,0.3,0.2,0.5,0.7C47.1-142,47.2-141.1,47.2-139.8z"/>
	<path d="M63.1-146.2c-1.3,0.3-2.2,1-2.6,2c-0.5,0.9-0.7,2.4-0.7,4.3v9c0,2,0.2,3.4,0.8,4.4c0.5,0.9,1.3,1.6,2.3,2l0.8,0.3l0.6,0.1
		l1.5,0.1l8.2,0v-3l-8.1,0c-1.4-0.1-2-0.3-2.3-0.5c-0.2-0.1-0.8-0.7-0.8-3.4v-2.9H74v-3.1H62.8v-3c0-2.7,0.5-3.3,0.7-3.4
		c0.4-0.2,1.1-0.3,2.1-0.4l8.5,0v-3h-5.4C66.1-146.7,64.3-146.5,63.1-146.2z"/>
	<path d="M87.6-146.2c-1.3,0.3-2.2,1-2.6,2c-0.5,0.9-0.7,2.4-0.7,4.3v9c0,2,0.2,3.4,0.8,4.4c0.5,0.9,1.3,1.6,2.3,2l0.8,0.3l0.6,0.1
		l1.5,0.1l8.2,0v-3l-8.1,0c-1.4-0.1-2-0.3-2.3-0.5c-0.2-0.1-0.8-0.7-0.8-3.4v-2.9h11.3v-3.1H87.2v-3c0-2.7,0.5-3.3,0.7-3.4
		c0.4-0.2,1.1-0.3,2.1-0.4l8.5,0v-3h-5.4C90.6-146.7,88.8-146.5,87.6-146.2z"/>
	<path d="M120.2-133.6c1-0.4,1.8-1,2.4-1.9c0.5-0.9,0.7-2.3,0.7-4.4c0-2.1-0.3-3.5-0.8-4.5c-0.6-1-1.5-1.7-2.7-1.9
		c-1.1-0.2-2.8-0.4-5.1-0.4h-7v22.7h3v-9l6.1,0l4.2,9.1h3.2l-4.4-9.5L120.2-133.6z M120.4-139.9c0,1.7-0.2,2.4-0.3,2.7
		c-0.2,0.5-0.4,0.7-0.5,0.8c-0.4,0.2-1.2,0.4-2.2,0.5h-6.6v-7.7l6.9,0c1.2,0.1,1.8,0.3,2,0.4C119.8-143.2,120.4-142.7,120.4-139.9z"
		/>
	<polygon points="163.1,-145.4 158.5,-137.5 154,-145.5 153.1,-146.7 150.6,-146.7 150.6,-124 153.5,-124 153.5,-140.5 
		157.4,-133.8 159.7,-133.8 163.6,-140.5 163.6,-124 166.5,-124 166.5,-146.7 164,-146.7 	"/>
	<path d="M192.1-143.5c-0.2-0.7-0.6-1.3-1.1-1.8c-0.4-0.4-0.9-0.7-1.6-0.9c-0.5-0.2-1.3-0.3-2.2-0.4c-1.9-0.2-3.7-0.2-5.6,0
		c-1,0.1-1.7,0.2-2.2,0.4c-0.7,0.2-1.2,0.6-1.6,1c-0.5,0.5-0.9,1.1-1.1,1.8c-0.2,0.7-0.4,1.6-0.4,2.8l0,10.5
		c0.1,1.1,0.2,2.1,0.4,2.8c0.2,0.8,0.6,1.4,1.1,1.8c0.4,0.4,1,0.7,1.7,0.9c0.5,0.2,1.2,0.3,2.2,0.4c0.9,0.1,1.9,0.1,2.8,0.1
		c0.9,0,1.9,0,2.8-0.1c1-0.1,1.7-0.2,2.2-0.4c0.7-0.3,1.2-0.6,1.6-0.9c0.5-0.5,0.9-1.1,1.2-1.8c0.2-0.7,0.4-1.6,0.4-2.8v-10.6
		C192.5-141.8,192.3-142.8,192.1-143.5L192.1-143.5z M189.6-140.9v11c-0.1,1.2-0.3,1.8-0.4,2c-0.1,0-0.2,0.1-0.3,0.2
		c-0.2,0.1-0.7,0.3-1.5,0.5c-0.7,0.2-1.7,0.2-3,0.2c-1.1,0-2-0.1-2.7-0.2c-0.7-0.1-1.2-0.3-1.6-0.4c-0.4-0.2-0.5-0.3-0.5-0.3
		c-0.1-0.2-0.3-0.7-0.4-2.1l0-10.8c0.1-1.3,0.3-1.9,0.5-2.2c0,0,0.1-0.1,0.4-0.3c0.3-0.2,0.9-0.3,1.6-0.4c0.7-0.1,1.6-0.2,2.7-0.2
		c1.3,0,2.3,0.1,3,0.2c0.9,0.2,1.3,0.4,1.5,0.5c0.2,0.1,0.3,0.2,0.3,0.2C189.3-142.7,189.5-142.1,189.6-140.9z"/>
	<path d="M215.3-129.9c-0.1,1.3-0.3,1.8-0.4,2.1c-0.1,0-0.2,0.1-0.3,0.2c-0.2,0.1-0.6,0.3-1.5,0.5c-0.7,0.2-1.8,0.2-3,0.2
		c-1.6,0-2.8-0.1-3.6-0.4c-1.1-0.3-1.2-0.5-1.2-0.5c-0.2-0.3-0.4-0.8-0.5-2.1v-16.8h-3l0,16.6c0.1,1.2,0.2,2.1,0.4,2.8
		c0.2,0.8,0.6,1.4,1.1,1.8c0.4,0.4,1,0.8,1.7,1c0.5,0.2,1.3,0.3,2.2,0.4c0.9,0.1,1.9,0.1,2.8,0.1c0.9,0,1.9,0,2.8-0.1
		c1-0.1,1.7-0.2,2.2-0.4c0.7-0.2,1.2-0.6,1.6-0.9c0.5-0.5,0.9-1.1,1.2-1.8c0.2-0.7,0.4-1.7,0.4-2.8v-16.6h-3L215.3-129.9z"/>
	<polygon points="240.1,-130.8 230.9,-146.7 228.6,-146.7 228.6,-124 231.6,-124 231.6,-139.9 240.7,-124 243.1,-124 243.1,-146.7 
		240.1,-146.7 	"/>
	<polygon points="253.4,-143.6 260,-143.6 260,-124 263.1,-124 263.1,-143.6 269.8,-143.6 269.8,-146.7 253.4,-146.7 	"/>
	<path d="M294-144.3c-0.5-0.8-1.3-1.5-2.3-1.9c-1-0.4-2.4-0.5-4.3-0.5c-1.8,0-3.2,0.2-4.2,0.5c-1.1,0.4-1.9,1-2.4,1.9
		c-0.5,0.8-0.8,2-0.8,3.7v16.6h3v-9.6h8.9v9.6h3l0-16.7C294.7-142.3,294.4-143.5,294-144.3z M291.8-140.9v4.2h-8.9l0-4.1
		c0.1-1.3,0.3-1.9,0.4-2.1c0.2-0.3,1-0.9,4-0.9c3.2,0,3.9,0.6,4.1,0.9C291.5-142.7,291.7-142.2,291.8-140.9z"/>
	<rect x="307" y="-146.7" width="2.9" height="22.7"/>
	<polygon points="333.9,-146.7 333.9,-130.8 324.7,-146.7 322.4,-146.7 322.4,-124 325.3,-124 325.3,-139.9 334.5,-124 336.8,-124 
		336.8,-146.7 	"/>
	<path class="st6" d="M274.2-163.8c0-1.5,0.6-2.9,1.5-3.9L235-238.2c-0.4,0.1-0.8,0.1-1.3,0.1c-0.5,0-0.9-0.1-1.4-0.2L190-165
		c0.1,0.4,0.2,0.8,0.2,1.2H274.2z"/>
	<path class="st6" d="M135.5-238.2l42.4,73.4c-0.1,0.4-0.1,0.7-0.1,1.1H94.2c0-1.7-0.8-3.2-1.9-4.3l40.5-70.2
		c0.4,0.1,0.9,0.2,1.4,0.2C134.6-238.1,135.1-238.2,135.5-238.2z"/>
	<path class="st7" d="M183.9-169.9c1.4,0,2.6,0.4,3.6,1.2l41.4-71.6c-0.5-0.6-0.9-1.3-1.1-2h-87.7c-0.3,0.8-0.7,1.5-1.2,2.1
		l41.4,71.6C181.3-169.4,182.6-169.9,183.9-169.9z"/>
	<linearGradient id="SVGID_4_" gradientUnits="userSpaceOnUse" x1="183.9118" y1="-335.7012" x2="183.9118" y2="-227.7462">
		<stop  offset="0" style="stop-color:#CDCDCD"/>
		<stop  offset="3.908539e-02" style="stop-color:#CECECE"/>
		<stop  offset="0.6093" style="stop-color:#E2E2E2"/>
		<stop  offset="1" style="stop-color:#E9E9E9"/>
	</linearGradient>
	<path class="st8" d="M138.8-248.6c0.6,0.6,1,1.4,1.3,2.2h87.7c0.3-0.8,0.7-1.5,1.3-2.2l-45.1-79.9L138.8-248.6z"/>
	<g>
		<g>
			<linearGradient id="SVGID_5_" gradientUnits="userSpaceOnUse" x1="89.4225" y1="-292.9512" x2="89.4225" y2="-208.8851">
				<stop  offset="0" style="stop-color:#CDCDCD"/>
				<stop  offset="3.607553e-02" style="stop-color:#D0D0D0"/>
				<stop  offset="0.2636" style="stop-color:#DEDEDE"/>
				<stop  offset="0.5399" style="stop-color:#E6E6E6"/>
				<stop  offset="1" style="stop-color:#E9E9E9"/>
			</linearGradient>
			<path class="st9" d="M129.5-248.5c-1,1.1-1.6,2.6-1.6,4.2c0,1.5,0.6,2.9,1.5,4l-40.7,70.5c-0.2,0-0.5,0-0.7,0
				c-3.4,0-6.2,2.7-6.2,6.1H49.3l64.6-111.9L129.5-248.5z"/>
		</g>
	</g>
	<g>
		<g>
			<linearGradient id="SVGID_6_" gradientUnits="userSpaceOnUse" x1="278.3794" y1="-292.9512" x2="278.3794" y2="-208.8851">
				<stop  offset="0" style="stop-color:#CDCDCD"/>
				<stop  offset="3.607553e-02" style="stop-color:#D0D0D0"/>
				<stop  offset="0.2636" style="stop-color:#DEDEDE"/>
				<stop  offset="0.5399" style="stop-color:#E6E6E6"/>
				<stop  offset="1" style="stop-color:#E9E9E9"/>
			</linearGradient>
			<path class="st10" d="M280.4-169.9c3.4,0,6.2,2.7,6.2,6.1h31.8l-64.6-111.9l-15.6,27c1,1.1,1.7,2.6,1.7,4.2c0,1.6-0.6,3-1.5,4.1
				l40.7,70.6C279.6-169.8,280-169.9,280.4-169.9z"/>
		</g>
	</g>
</g>
<g>
	<path class="st11" d="M-402.9,208.2c-1.2-0.3-3-0.5-5.6-0.5h-6.7v22.7h3v-9l6.7,0l1.5-0.1l0.7-0.1l0.7-0.2c1.1-0.3,1.9-1,2.4-1.9
		c0.5-0.9,0.8-2.3,0.8-4.3c0-2-0.2-3.4-0.7-4.3C-400.7,209.2-401.6,208.5-402.9,208.2z M-402.5,214.6c0,2.7-0.5,3.3-0.8,3.4
		c-0.5,0.3-1.2,0.4-2.3,0.4h-6.6v-7.7h6.5c1,0,1.8,0.2,2.4,0.5c0.1,0,0.3,0.2,0.5,0.7C-402.6,212.4-402.5,213.3-402.5,214.6z"/>
	<path class="st11" d="M-386.6,208.2c-1.3,0.3-2.2,1-2.6,2c-0.5,0.9-0.7,2.4-0.7,4.3v9c0,2,0.2,3.4,0.8,4.4v0c0.5,0.9,1.3,1.6,2.3,2
		l0.8,0.3l0.6,0.1l1.5,0.1l8.2,0v-3l-8.1,0c-1.4-0.1-2-0.3-2.3-0.5c-0.2-0.1-0.8-0.7-0.8-3.4v-2.9h11.3v-3.1H-387v-3
		c0-2.7,0.5-3.3,0.7-3.4c0.4-0.2,1.1-0.3,2.1-0.4l8.5,0v-3h-5.4C-383.6,207.7-385.4,207.9-386.6,208.2z"/>
	<path class="st11" d="M-362.1,208.2c-1.3,0.3-2.2,1-2.6,2c-0.5,0.9-0.7,2.4-0.7,4.3v9c0,2,0.2,3.4,0.8,4.4v0c0.5,0.9,1.3,1.6,2.3,2
		l0.8,0.3l0.6,0.1l1.5,0.1l8.2,0v-3l-8.1,0c-1.4-0.1-2-0.3-2.3-0.5c-0.2-0.1-0.8-0.7-0.8-3.4v-2.9h11.3v-3.1h-11.3v-3
		c0-2.7,0.5-3.3,0.7-3.4c0.4-0.2,1.1-0.3,2.1-0.4l8.5,0v-3h-5.4C-359.1,207.7-360.9,207.9-362.1,208.2z"/>
	<path class="st11" d="M-329.5,220.8c1-0.4,1.8-1,2.4-1.9c0.5-0.9,0.7-2.3,0.7-4.4c0-2.1-0.3-3.5-0.8-4.5c-0.6-1-1.5-1.7-2.7-1.9
		c-1.1-0.2-2.8-0.4-5.1-0.4h-7v22.7h3v-9l6.1,0l4.2,9.1h3.2l-4.4-9.4L-329.5,220.8z M-329.3,214.5c0,1.7-0.2,2.4-0.3,2.7
		c-0.2,0.5-0.4,0.7-0.5,0.8c-0.4,0.2-1.2,0.4-2.2,0.5h-6.6v-7.7l6.9,0c1.2,0.1,1.8,0.3,2,0.4C-329.9,211.2-329.3,211.7-329.3,214.5z
		"/>
	<polygon class="st11" points="-286.6,209 -291.2,216.9 -295.8,208.9 -296.6,207.7 -299.1,207.7 -299.1,230.4 -296.2,230.4 
		-296.2,213.9 -292.4,220.6 -290,220.6 -286.1,213.9 -286.1,230.4 -283.3,230.4 -283.3,207.7 -285.8,207.7 	"/>
	<path class="st11" d="M-258.8,209.2c-0.4-0.4-0.9-0.7-1.6-0.9c-0.5-0.2-1.3-0.3-2.2-0.4c-1.9-0.2-3.7-0.2-5.6,0
		c-1,0.1-1.7,0.2-2.2,0.4c-0.7,0.2-1.2,0.6-1.6,1c-0.5,0.5-0.9,1.1-1.1,1.8c-0.2,0.7-0.4,1.6-0.4,2.8l0,10.5
		c0.1,1.2,0.2,2.1,0.4,2.8c0.2,0.8,0.6,1.4,1.1,1.8c0.4,0.4,1,0.7,1.7,0.9c0.5,0.2,1.2,0.3,2.2,0.4c0.9,0.1,1.9,0.1,2.8,0.1
		c0.9,0,1.9,0,2.8-0.1c1-0.1,1.7-0.2,2.2-0.4c0.7-0.2,1.2-0.6,1.6-0.9c0.5-0.5,0.9-1.1,1.2-1.8c0.2-0.7,0.4-1.6,0.4-2.8v-10.6
		c0-1.2-0.2-2.1-0.4-2.8C-257.9,210.2-258.3,209.6-258.8,209.2z M-260.1,213.5v11c-0.1,1.2-0.3,1.8-0.4,2c-0.1,0-0.2,0.1-0.3,0.2
		c-0.3,0.2-0.8,0.4-1.5,0.5c-0.7,0.2-1.7,0.2-3,0.2c-1.1,0-2-0.1-2.7-0.2c-0.7-0.1-1.2-0.3-1.6-0.4c-0.4-0.2-0.5-0.3-0.5-0.3
		c-0.1-0.2-0.3-0.7-0.5-2.1l0-10.8c0.1-1.3,0.3-1.9,0.5-2.2c0,0,0.1-0.1,0.4-0.3c0.3-0.2,0.9-0.3,1.6-0.4c0.7-0.1,1.6-0.2,2.7-0.2
		c1.3,0,2.3,0.1,3,0.2c0.9,0.2,1.3,0.4,1.5,0.5c0.2,0.1,0.3,0.2,0.3,0.2C-260.4,211.8-260.3,212.3-260.1,213.5z"/>
	<path class="st11" d="M-234.4,224.5c-0.1,1.3-0.3,1.8-0.4,2.1c-0.1,0-0.2,0.1-0.3,0.2c-0.2,0.1-0.6,0.3-1.5,0.5
		c-0.7,0.2-1.8,0.2-3,0.2c-1.6,0-2.8-0.1-3.6-0.4c-1.1-0.3-1.2-0.5-1.2-0.5c-0.2-0.3-0.4-0.8-0.5-2.1v-16.8h-3l0,16.6
		c0.1,1.2,0.2,2.1,0.4,2.8c0.2,0.8,0.6,1.4,1.1,1.8c0.4,0.4,1,0.8,1.7,1c0.5,0.2,1.3,0.3,2.2,0.4c0.9,0.1,1.9,0.1,2.8,0.1
		c0.9,0,1.9,0,2.8-0.1c1-0.1,1.7-0.2,2.2-0.4c0.7-0.2,1.2-0.6,1.6-0.9c0.5-0.5,0.9-1.1,1.2-1.8c0.2-0.7,0.4-1.7,0.4-2.8v-16.6h-3
		L-234.4,224.5z"/>
	<polygon class="st11" points="-209.6,223.6 -218.8,207.7 -221.1,207.7 -221.1,230.4 -218.2,230.4 -218.2,214.5 -209,230.4 
		-206.7,230.4 -206.7,207.7 -209.6,207.7 	"/>
	<polygon class="st11" points="-196.4,210.8 -189.7,210.8 -189.7,230.4 -186.6,230.4 -186.6,210.8 -179.9,210.8 -179.9,207.7 
		-196.4,207.7 	"/>
	<path class="st11" d="M-155.8,210.1c-0.5-0.8-1.3-1.5-2.3-1.9c-1-0.4-2.4-0.5-4.3-0.5c-1.8,0-3.2,0.2-4.2,0.5
		c-1.1,0.4-1.9,1-2.4,1.9c-0.5,0.8-0.8,2-0.8,3.7v16.6h3v-9.6h8.9v9.6h3l0-16.7C-155,212.1-155.3,210.9-155.8,210.1z M-157.9,213.5
		v4.2h-8.9l0-4.1c0.1-1.3,0.3-1.9,0.4-2.1c0.2-0.3,1-0.9,4-0.9c3.2,0,3.9,0.6,4.1,0.9C-158.2,211.7-158,212.2-157.9,213.5z"/>
	<rect x="-142.7" y="207.7" class="st11" width="2.9" height="22.7"/>
	<polygon class="st11" points="-115.8,207.7 -115.8,223.6 -125,207.7 -127.3,207.7 -127.3,230.4 -124.4,230.4 -124.4,214.5 
		-115.2,230.4 -112.9,230.4 -112.9,207.7 	"/>
	<g>
		<g>
			<path class="st11" d="M-175.5,190.6c0-1.5,0.6-2.9,1.5-3.9l-40.7-70.6c-0.4,0.1-0.8,0.1-1.3,0.1c-0.5,0-0.9,0-1.4-0.2l-42.3,73.3
				c0.1,0.4,0.1,0.8,0.2,1.2H-175.5z"/>
		</g>
	</g>
	<g>
		<g>
			<path class="st11" d="M-314.3,116.1l42.4,73.4c-0.1,0.4-0.1,0.7-0.1,1.1h-83.5c0-1.7-0.8-3.2-1.9-4.3l40.5-70.2
				c0.4,0.1,0.9,0.2,1.4,0.2C-315.1,116.3-314.7,116.2-314.3,116.1z"/>
		</g>
	</g>
	<g>
		<g>
			<path class="st11" d="M-265.8,184.5c1.3,0,2.6,0.4,3.6,1.2l41.4-71.6c-0.5-0.6-0.9-1.3-1.1-2h-87.7c-0.3,0.8-0.7,1.5-1.2,2.1
				l41.4,71.6C-268.4,185-267.2,184.5-265.8,184.5z"/>
		</g>
	</g>
	<g>
		<g>
			<defs>
				<path id="SVGID_7_" d="M-310.9,105.8c0.6,0.6,1,1.4,1.3,2.2h87.7c0.3-0.8,0.7-1.5,1.3-2.2L-265.8,26L-310.9,105.8z"/>
			</defs>
			<use xlink:href="#SVGID_7_"  style="overflow:visible;fill:#231F20;"/>
			<clipPath id="SVGID_8_">
				<use xlink:href="#SVGID_7_"  style="overflow:visible;"/>
			</clipPath>
			<g class="st12">
				<rect x="-310.9" y="26" class="st11" width="90.2" height="0"/>
			</g>
			<g class="st12">
				<rect x="-310.9" y="26.1" class="st11" width="90.2" height="1.2"/>
			</g>
			<g class="st12">
				<rect x="-310.9" y="27.3" class="st11" width="90.2" height="1.2"/>
			</g>
			<g class="st12">
				<rect x="-310.9" y="28.5" class="st11" width="90.2" height="1.2"/>
			</g>
			<g class="st12">
				<rect x="-310.9" y="29.7" class="st11" width="90.2" height="1.2"/>
			</g>
			<g class="st12">
				<rect x="-310.9" y="31" class="st11" width="90.2" height="1.2"/>
			</g>
			<g class="st12">
				<rect x="-310.9" y="32.2" class="st11" width="90.2" height="1.2"/>
			</g>
			<g class="st12">
				<rect x="-310.9" y="33.4" class="st11" width="90.2" height="1.2"/>
			</g>
			<g class="st12">
				<rect x="-310.9" y="34.6" class="st11" width="90.2" height="1.2"/>
			</g>
			<g class="st12">
				<rect x="-310.9" y="35.9" class="st11" width="90.2" height="1.2"/>
			</g>
			<g class="st12">
				<rect x="-310.9" y="37.1" class="st11" width="90.2" height="1.2"/>
			</g>
			<g class="st12">
				<rect x="-310.9" y="38.3" class="st11" width="90.2" height="1.2"/>
			</g>
			<g class="st12">
				<rect x="-310.9" y="39.6" class="st11" width="90.2" height="1.2"/>
			</g>
			<g class="st12">
				<rect x="-310.9" y="40.8" class="st11" width="90.2" height="1.2"/>
			</g>
			<g class="st12">
				<rect x="-310.9" y="42" class="st11" width="90.2" height="1.2"/>
			</g>
			<g class="st12">
				<rect x="-310.9" y="43.2" class="st11" width="90.2" height="1.2"/>
			</g>
			<g class="st12">
				<rect x="-310.9" y="44.5" class="st11" width="90.2" height="1.2"/>
			</g>
			<g class="st12">
				<rect x="-310.9" y="45.7" class="st11" width="90.2" height="1.2"/>
			</g>
			<g class="st12">
				<rect x="-310.9" y="46.9" class="st11" width="90.2" height="1.2"/>
			</g>
			<g class="st12">
				<rect x="-310.9" y="48.1" class="st11" width="90.2" height="1.2"/>
			</g>
			<g class="st12">
				<rect x="-310.9" y="49.4" class="st11" width="90.2" height="1.2"/>
			</g>
			<g class="st12">
				<rect x="-310.9" y="50.6" class="st11" width="90.2" height="1.2"/>
			</g>
			<g class="st12">
				<rect x="-310.9" y="51.8" class="st11" width="90.2" height="1.2"/>
			</g>
			<g class="st12">
				<rect x="-310.9" y="53" class="st11" width="90.2" height="1.2"/>
			</g>
			<g class="st12">
				<rect x="-310.9" y="54.3" class="st11" width="90.2" height="1.2"/>
			</g>
			<g class="st12">
				<rect x="-310.9" y="55.5" class="st11" width="90.2" height="1.2"/>
			</g>
			<g class="st12">
				<rect x="-310.9" y="56.7" class="st11" width="90.2" height="1.2"/>
			</g>
			<g class="st12">
				<rect x="-310.9" y="58" class="st11" width="90.2" height="1.2"/>
			</g>
			<g class="st12">
				<rect x="-310.9" y="59.2" class="st11" width="90.2" height="1.2"/>
			</g>
			<g class="st12">
				<rect x="-310.9" y="60.4" class="st11" width="90.2" height="1.2"/>
			</g>
			<g class="st12">
				<rect x="-310.9" y="61.6" class="st11" width="90.2" height="1.2"/>
			</g>
			<g class="st12">
				<rect x="-310.9" y="62.9" class="st11" width="90.2" height="1.2"/>
			</g>
			<g class="st12">
				<rect x="-310.9" y="64.1" class="st11" width="90.2" height="1.2"/>
			</g>
			<g class="st12">
				<rect x="-310.9" y="65.3" class="st11" width="90.2" height="1.2"/>
			</g>
			<g class="st12">
				<rect x="-310.9" y="66.5" class="st11" width="90.2" height="1.2"/>
			</g>
			<g class="st12">
				<rect x="-310.9" y="67.8" class="st11" width="90.2" height="1.2"/>
			</g>
			<g class="st12">
				<rect x="-310.9" y="69" class="st11" width="90.2" height="1.2"/>
			</g>
			<g class="st12">
				<rect x="-310.9" y="70.2" class="st11" width="90.2" height="1.2"/>
			</g>
			<g class="st12">
				<rect x="-310.9" y="71.4" class="st11" width="90.2" height="1.2"/>
			</g>
			<g class="st12">
				<rect x="-310.9" y="72.7" class="st11" width="90.2" height="1.2"/>
			</g>
			<g class="st12">
				<rect x="-310.9" y="73.9" class="st11" width="90.2" height="1.2"/>
			</g>
			<g class="st12">
				<rect x="-310.9" y="75.1" class="st11" width="90.2" height="1.2"/>
			</g>
			<g class="st12">
				<rect x="-310.9" y="76.4" class="st11" width="90.2" height="1.2"/>
			</g>
			<g class="st12">
				<rect x="-310.9" y="77.6" class="st11" width="90.2" height="1.2"/>
			</g>
			<g class="st12">
				<rect x="-310.9" y="78.8" class="st11" width="90.2" height="1.2"/>
			</g>
			<g class="st12">
				<rect x="-310.9" y="80" class="st11" width="90.2" height="1.2"/>
			</g>
			<g class="st12">
				<rect x="-310.9" y="81.3" class="st11" width="90.2" height="1.2"/>
			</g>
			<g class="st12">
				<rect x="-310.9" y="82.5" class="st11" width="90.2" height="1.2"/>
			</g>
			<g class="st12">
				<rect x="-310.9" y="83.7" class="st11" width="90.2" height="1.2"/>
			</g>
			<g class="st12">
				<rect x="-310.9" y="84.9" class="st11" width="90.2" height="1.2"/>
			</g>
			<g class="st12">
				<rect x="-310.9" y="86.2" class="st11" width="90.2" height="1.2"/>
			</g>
			<g class="st12">
				<rect x="-310.9" y="87.4" class="st11" width="90.2" height="1.2"/>
			</g>
			<g class="st12">
				<rect x="-310.9" y="88.6" class="st11" width="90.2" height="1.2"/>
			</g>
			<g class="st12">
				<rect x="-310.9" y="89.8" class="st11" width="90.2" height="1.2"/>
			</g>
			<g class="st12">
				<rect x="-310.9" y="91.1" class="st11" width="90.2" height="1.2"/>
			</g>
			<g class="st12">
				<rect x="-310.9" y="92.3" class="st11" width="90.2" height="1.2"/>
			</g>
			<g class="st12">
				<rect x="-310.9" y="93.5" class="st11" width="90.2" height="1.2"/>
			</g>
			<g class="st12">
				<rect x="-310.9" y="94.8" class="st11" width="90.2" height="1.2"/>
			</g>
			<g class="st12">
				<rect x="-310.9" y="96" class="st11" width="90.2" height="1.2"/>
			</g>
			<g class="st12">
				<rect x="-310.9" y="97.2" class="st11" width="90.2" height="1.2"/>
			</g>
			<g class="st12">
				<rect x="-310.9" y="98.4" class="st11" width="90.2" height="1.2"/>
			</g>
			<g class="st12">
				<rect x="-310.9" y="99.7" class="st11" width="90.2" height="1.2"/>
			</g>
			<g class="st12">
				<rect x="-310.9" y="100.9" class="st11" width="90.2" height="1.2"/>
			</g>
			<g class="st12">
				<rect x="-310.9" y="102.1" class="st11" width="90.2" height="1.2"/>
			</g>
			<g class="st12">
				<rect x="-310.9" y="103.3" class="st11" width="90.2" height="1.2"/>
			</g>
			<g class="st12">
				<rect x="-310.9" y="104.6" class="st11" width="90.2" height="1.2"/>
			</g>
			<g class="st12">
				<rect x="-310.9" y="105.8" class="st11" width="90.2" height="1.2"/>
			</g>
			<g class="st12">
				<rect x="-310.9" y="107" class="st11" width="90.2" height="1"/>
			</g>
		</g>
	</g>
	<g>
		<g>
			<g>
				<g>
					<defs>
						<path id="SVGID_9_" d="M-320.2,105.9c-1,1.1-1.6,2.6-1.6,4.2c0,1.5,0.6,2.9,1.5,4l-40.7,70.5c-0.2,0-0.5,0-0.7,0
							c-3.4,0-6.2,2.7-6.2,6.1h-32.4l64.6-111.9L-320.2,105.9z"/>
					</defs>
					<use xlink:href="#SVGID_9_"  style="overflow:visible;fill:#231F20;"/>
					<clipPath id="SVGID_10_">
						<use xlink:href="#SVGID_9_"  style="overflow:visible;"/>
					</clipPath>
					<g class="st13">
						<rect x="-400.4" y="78.8" class="st11" width="80.2" height="0.8"/>
					</g>
					<g class="st13">
						<rect x="-400.4" y="79.6" class="st11" width="80.2" height="1"/>
					</g>
					<g class="st13">
						<rect x="-400.4" y="80.6" class="st11" width="80.2" height="1"/>
					</g>
					<g class="st13">
						<rect x="-400.4" y="81.5" class="st11" width="80.2" height="1"/>
					</g>
					<g class="st13">
						<rect x="-400.4" y="82.5" class="st11" width="80.2" height="1"/>
					</g>
					<g class="st13">
						<rect x="-400.4" y="83.4" class="st11" width="80.2" height="1"/>
					</g>
					<g class="st13">
						<rect x="-400.4" y="84.4" class="st11" width="80.2" height="1"/>
					</g>
					<g class="st13">
						<rect x="-400.4" y="85.3" class="st11" width="80.2" height="1"/>
					</g>
					<g class="st13">
						<rect x="-400.4" y="86.3" class="st11" width="80.2" height="1"/>
					</g>
					<g class="st13">
						<rect x="-400.4" y="87.2" class="st11" width="80.2" height="1"/>
					</g>
					<g class="st13">
						<rect x="-400.4" y="88.2" class="st11" width="80.2" height="1"/>
					</g>
					<g class="st13">
						<rect x="-400.4" y="89.1" class="st11" width="80.2" height="1"/>
					</g>
					<g class="st13">
						<rect x="-400.4" y="90.1" class="st11" width="80.2" height="1"/>
					</g>
					<g class="st13">
						<rect x="-400.4" y="91.1" class="st11" width="80.2" height="1"/>
					</g>
					<g class="st13">
						<rect x="-400.4" y="92" class="st11" width="80.2" height="1"/>
					</g>
					<g class="st13">
						<rect x="-400.4" y="93" class="st11" width="80.2" height="1"/>
					</g>
					<g class="st13">
						<rect x="-400.4" y="93.9" class="st11" width="80.2" height="1"/>
					</g>
					<g class="st13">
						<rect x="-400.4" y="94.9" class="st11" width="80.2" height="1"/>
					</g>
					<g class="st13">
						<rect x="-400.4" y="95.8" class="st11" width="80.2" height="1"/>
					</g>
					<g class="st13">
						<rect x="-400.4" y="96.8" class="st11" width="80.2" height="1"/>
					</g>
					<g class="st13">
						<rect x="-400.4" y="97.7" class="st11" width="80.2" height="1"/>
					</g>
					<g class="st13">
						<rect x="-400.4" y="98.7" class="st11" width="80.2" height="1"/>
					</g>
					<g class="st13">
						<rect x="-400.4" y="99.7" class="st11" width="80.2" height="1"/>
					</g>
					<g class="st13">
						<rect x="-400.4" y="100.6" class="st11" width="80.2" height="1"/>
					</g>
					<g class="st13">
						<rect x="-400.4" y="101.6" class="st11" width="80.2" height="1"/>
					</g>
					<g class="st13">
						<rect x="-400.4" y="102.5" class="st11" width="80.2" height="1"/>
					</g>
					<g class="st13">
						<rect x="-400.4" y="103.5" class="st11" width="80.2" height="1"/>
					</g>
					<g class="st13">
						<rect x="-400.4" y="104.4" class="st11" width="80.2" height="1"/>
					</g>
					<g class="st13">
						<rect x="-400.4" y="105.4" class="st11" width="80.2" height="1"/>
					</g>
					<g class="st13">
						<rect x="-400.4" y="106.3" class="st11" width="80.2" height="1"/>
					</g>
					<g class="st13">
						<rect x="-400.4" y="107.3" class="st11" width="80.2" height="1"/>
					</g>
					<g class="st13">
						<rect x="-400.4" y="108.3" class="st11" width="80.2" height="1"/>
					</g>
					<g class="st13">
						<rect x="-400.4" y="109.2" class="st11" width="80.2" height="1"/>
					</g>
					<g class="st13">
						<rect x="-400.4" y="110.2" class="st11" width="80.2" height="1"/>
					</g>
					<g class="st13">
						<rect x="-400.4" y="111.1" class="st11" width="80.2" height="1"/>
					</g>
					<g class="st13">
						<rect x="-400.4" y="112.1" class="st11" width="80.2" height="1"/>
					</g>
					<g class="st13">
						<rect x="-400.4" y="113" class="st11" width="80.2" height="1"/>
					</g>
					<g class="st13">
						<rect x="-400.4" y="114" class="st11" width="80.2" height="1"/>
					</g>
					<g class="st13">
						<rect x="-400.4" y="114.9" class="st11" width="80.2" height="1"/>
					</g>
					<g class="st13">
						<rect x="-400.4" y="115.9" class="st11" width="80.2" height="1"/>
					</g>
					<g class="st13">
						<rect x="-400.4" y="116.9" class="st11" width="80.2" height="1"/>
					</g>
					<g class="st13">
						<rect x="-400.4" y="117.8" class="st11" width="80.2" height="1"/>
					</g>
					<g class="st13">
						<rect x="-400.4" y="118.8" class="st11" width="80.2" height="1"/>
					</g>
					<g class="st13">
						<rect x="-400.4" y="119.7" class="st11" width="80.2" height="1"/>
					</g>
					<g class="st13">
						<rect x="-400.4" y="120.7" class="st11" width="80.2" height="1"/>
					</g>
					<g class="st13">
						<rect x="-400.4" y="121.6" class="st11" width="80.2" height="1"/>
					</g>
					<g class="st13">
						<rect x="-400.4" y="122.6" class="st11" width="80.2" height="1"/>
					</g>
					<g class="st13">
						<rect x="-400.4" y="123.5" class="st11" width="80.2" height="1"/>
					</g>
					<g class="st13">
						<rect x="-400.4" y="124.5" class="st11" width="80.2" height="1"/>
					</g>
					<g class="st13">
						<rect x="-400.4" y="125.5" class="st11" width="80.2" height="1"/>
					</g>
					<g class="st13">
						<rect x="-400.4" y="126.4" class="st11" width="80.2" height="1"/>
					</g>
					<g class="st13">
						<rect x="-400.4" y="127.4" class="st11" width="80.2" height="1"/>
					</g>
					<g class="st13">
						<rect x="-400.4" y="128.3" class="st11" width="80.2" height="1"/>
					</g>
					<g class="st13">
						<rect x="-400.4" y="129.3" class="st11" width="80.2" height="1"/>
					</g>
					<g class="st13">
						<rect x="-400.4" y="130.2" class="st11" width="80.2" height="1"/>
					</g>
					<g class="st13">
						<rect x="-400.4" y="131.2" class="st11" width="80.2" height="1"/>
					</g>
					<g class="st13">
						<rect x="-400.4" y="132.1" class="st11" width="80.2" height="1"/>
					</g>
					<g class="st13">
						<rect x="-400.4" y="133.1" class="st11" width="80.2" height="1"/>
					</g>
					<g class="st13">
						<rect x="-400.4" y="134" class="st11" width="80.2" height="1"/>
					</g>
					<g class="st13">
						<rect x="-400.4" y="135" class="st11" width="80.2" height="1"/>
					</g>
					<g class="st13">
						<rect x="-400.4" y="136" class="st11" width="80.2" height="1"/>
					</g>
					<g class="st13">
						<rect x="-400.4" y="136.9" class="st11" width="80.2" height="1"/>
					</g>
					<g class="st13">
						<rect x="-400.4" y="137.9" class="st11" width="80.2" height="1"/>
					</g>
					<g class="st13">
						<rect x="-400.4" y="138.8" class="st11" width="80.2" height="1"/>
					</g>
					<g class="st13">
						<rect x="-400.4" y="139.8" class="st11" width="80.2" height="1"/>
					</g>
					<g class="st13">
						<rect x="-400.4" y="140.7" class="st11" width="80.2" height="1"/>
					</g>
					<g class="st13">
						<rect x="-400.4" y="141.7" class="st11" width="80.2" height="1"/>
					</g>
					<g class="st13">
						<rect x="-400.4" y="142.6" class="st11" width="80.2" height="1"/>
					</g>
					<g class="st13">
						<rect x="-400.4" y="143.6" class="st11" width="80.2" height="1"/>
					</g>
					<g class="st13">
						<rect x="-400.4" y="144.6" class="st11" width="80.2" height="1"/>
					</g>
					<g class="st13">
						<rect x="-400.4" y="145.5" class="st11" width="80.2" height="45.1"/>
					</g>
				</g>
			</g>
		</g>
	</g>
	<g>
		<g>
			<g>
				<g>
					<defs>
						<path id="SVGID_11_" d="M-169.3,184.5c3.4,0,6.2,2.7,6.2,6.1h31.8l-64.6-111.9l-15.6,27c1,1.1,1.7,2.6,1.7,4.2
							c0,1.6-0.6,3-1.5,4.1l40.7,70.6C-170.2,184.6-169.7,184.5-169.3,184.5z"/>
					</defs>
					<use xlink:href="#SVGID_11_"  style="overflow:visible;fill:#231F20;"/>
					<clipPath id="SVGID_12_">
						<use xlink:href="#SVGID_11_"  style="overflow:visible;"/>
					</clipPath>
					<g class="st14">
						<rect x="-211.4" y="78.8" class="st11" width="80.2" height="0.8"/>
					</g>
					<g class="st14">
						<rect x="-211.4" y="79.6" class="st11" width="80.2" height="1"/>
					</g>
					<g class="st14">
						<rect x="-211.4" y="80.6" class="st11" width="80.2" height="1"/>
					</g>
					<g class="st14">
						<rect x="-211.4" y="81.5" class="st11" width="80.2" height="1"/>
					</g>
					<g class="st14">
						<rect x="-211.4" y="82.5" class="st11" width="80.2" height="1"/>
					</g>
					<g class="st14">
						<rect x="-211.4" y="83.4" class="st11" width="80.2" height="1"/>
					</g>
					<g class="st14">
						<rect x="-211.4" y="84.4" class="st11" width="80.2" height="1"/>
					</g>
					<g class="st14">
						<rect x="-211.4" y="85.3" class="st11" width="80.2" height="1"/>
					</g>
					<g class="st14">
						<rect x="-211.4" y="86.3" class="st11" width="80.2" height="1"/>
					</g>
					<g class="st14">
						<rect x="-211.4" y="87.2" class="st11" width="80.2" height="1"/>
					</g>
					<g class="st14">
						<rect x="-211.4" y="88.2" class="st11" width="80.2" height="1"/>
					</g>
					<g class="st14">
						<rect x="-211.4" y="89.1" class="st11" width="80.2" height="1"/>
					</g>
					<g class="st14">
						<rect x="-211.4" y="90.1" class="st11" width="80.2" height="1"/>
					</g>
					<g class="st14">
						<rect x="-211.4" y="91.1" class="st11" width="80.2" height="1"/>
					</g>
					<g class="st14">
						<rect x="-211.4" y="92" class="st11" width="80.2" height="1"/>
					</g>
					<g class="st14">
						<rect x="-211.4" y="93" class="st11" width="80.2" height="1"/>
					</g>
					<g class="st14">
						<rect x="-211.4" y="93.9" class="st11" width="80.2" height="1"/>
					</g>
					<g class="st14">
						<rect x="-211.4" y="94.9" class="st11" width="80.2" height="1"/>
					</g>
					<g class="st14">
						<rect x="-211.4" y="95.8" class="st11" width="80.2" height="1"/>
					</g>
					<g class="st14">
						<rect x="-211.4" y="96.8" class="st11" width="80.2" height="1"/>
					</g>
					<g class="st14">
						<rect x="-211.4" y="97.7" class="st11" width="80.2" height="1"/>
					</g>
					<g class="st14">
						<rect x="-211.4" y="98.7" class="st11" width="80.2" height="1"/>
					</g>
					<g class="st14">
						<rect x="-211.4" y="99.7" class="st11" width="80.2" height="1"/>
					</g>
					<g class="st14">
						<rect x="-211.4" y="100.6" class="st11" width="80.2" height="1"/>
					</g>
					<g class="st14">
						<rect x="-211.4" y="101.6" class="st11" width="80.2" height="1"/>
					</g>
					<g class="st14">
						<rect x="-211.4" y="102.5" class="st11" width="80.2" height="1"/>
					</g>
					<g class="st14">
						<rect x="-211.4" y="103.5" class="st11" width="80.2" height="1"/>
					</g>
					<g class="st14">
						<rect x="-211.4" y="104.4" class="st11" width="80.2" height="1"/>
					</g>
					<g class="st14">
						<rect x="-211.4" y="105.4" class="st11" width="80.2" height="1"/>
					</g>
					<g class="st14">
						<rect x="-211.4" y="106.3" class="st11" width="80.2" height="1"/>
					</g>
					<g class="st14">
						<rect x="-211.4" y="107.3" class="st11" width="80.2" height="1"/>
					</g>
					<g class="st14">
						<rect x="-211.4" y="108.3" class="st11" width="80.2" height="1"/>
					</g>
					<g class="st14">
						<rect x="-211.4" y="109.2" class="st11" width="80.2" height="1"/>
					</g>
					<g class="st14">
						<rect x="-211.4" y="110.2" class="st11" width="80.2" height="1"/>
					</g>
					<g class="st14">
						<rect x="-211.4" y="111.1" class="st11" width="80.2" height="1"/>
					</g>
					<g class="st14">
						<rect x="-211.4" y="112.1" class="st11" width="80.2" height="1"/>
					</g>
					<g class="st14">
						<rect x="-211.4" y="113" class="st11" width="80.2" height="1"/>
					</g>
					<g class="st14">
						<rect x="-211.4" y="114" class="st11" width="80.2" height="1"/>
					</g>
					<g class="st14">
						<rect x="-211.4" y="114.9" class="st11" width="80.2" height="1"/>
					</g>
					<g class="st14">
						<rect x="-211.4" y="115.9" class="st11" width="80.2" height="1"/>
					</g>
					<g class="st14">
						<rect x="-211.4" y="116.9" class="st11" width="80.2" height="1"/>
					</g>
					<g class="st14">
						<rect x="-211.4" y="117.8" class="st11" width="80.2" height="1"/>
					</g>
					<g class="st14">
						<rect x="-211.4" y="118.8" class="st11" width="80.2" height="1"/>
					</g>
					<g class="st14">
						<rect x="-211.4" y="119.7" class="st11" width="80.2" height="1"/>
					</g>
					<g class="st14">
						<rect x="-211.4" y="120.7" class="st11" width="80.2" height="1"/>
					</g>
					<g class="st14">
						<rect x="-211.4" y="121.6" class="st11" width="80.2" height="1"/>
					</g>
					<g class="st14">
						<rect x="-211.4" y="122.6" class="st11" width="80.2" height="1"/>
					</g>
					<g class="st14">
						<rect x="-211.4" y="123.5" class="st11" width="80.2" height="1"/>
					</g>
					<g class="st14">
						<rect x="-211.4" y="124.5" class="st11" width="80.2" height="1"/>
					</g>
					<g class="st14">
						<rect x="-211.4" y="125.5" class="st11" width="80.2" height="1"/>
					</g>
					<g class="st14">
						<rect x="-211.4" y="126.4" class="st11" width="80.2" height="1"/>
					</g>
					<g class="st14">
						<rect x="-211.4" y="127.4" class="st11" width="80.2" height="1"/>
					</g>
					<g class="st14">
						<rect x="-211.4" y="128.3" class="st11" width="80.2" height="1"/>
					</g>
					<g class="st14">
						<rect x="-211.4" y="129.3" class="st11" width="80.2" height="1"/>
					</g>
					<g class="st14">
						<rect x="-211.4" y="130.2" class="st11" width="80.2" height="1"/>
					</g>
					<g class="st14">
						<rect x="-211.4" y="131.2" class="st11" width="80.2" height="1"/>
					</g>
					<g class="st14">
						<rect x="-211.4" y="132.1" class="st11" width="80.2" height="1"/>
					</g>
					<g class="st14">
						<rect x="-211.4" y="133.1" class="st11" width="80.2" height="1"/>
					</g>
					<g class="st14">
						<rect x="-211.4" y="134" class="st11" width="80.2" height="1"/>
					</g>
					<g class="st14">
						<rect x="-211.4" y="135" class="st11" width="80.2" height="1"/>
					</g>
					<g class="st14">
						<rect x="-211.4" y="136" class="st11" width="80.2" height="1"/>
					</g>
					<g class="st14">
						<rect x="-211.4" y="136.9" class="st11" width="80.2" height="1"/>
					</g>
					<g class="st14">
						<rect x="-211.4" y="137.9" class="st11" width="80.2" height="1"/>
					</g>
					<g class="st14">
						<rect x="-211.4" y="138.8" class="st11" width="80.2" height="1"/>
					</g>
					<g class="st14">
						<rect x="-211.4" y="139.8" class="st11" width="80.2" height="1"/>
					</g>
					<g class="st14">
						<rect x="-211.4" y="140.7" class="st11" width="80.2" height="1"/>
					</g>
					<g class="st14">
						<rect x="-211.4" y="141.7" class="st11" width="80.2" height="1"/>
					</g>
					<g class="st14">
						<rect x="-211.4" y="142.6" class="st11" width="80.2" height="1"/>
					</g>
					<g class="st14">
						<rect x="-211.4" y="143.6" class="st11" width="80.2" height="1"/>
					</g>
					<g class="st14">
						<rect x="-211.4" y="144.6" class="st11" width="80.2" height="1"/>
					</g>
					<g class="st14">
						<rect x="-211.4" y="145.5" class="st11" width="80.2" height="45.1"/>
					</g>
				</g>
			</g>
		</g>
	</g>
</g>
<g>
	<path class="st15" d="M45.1,210.2c-1.2-0.3-3-0.5-5.6-0.5h-6.7v22.7h3v-9l6.7,0l1.5-0.1l0.7-0.1l0.7-0.2c1.1-0.3,1.9-1,2.4-1.9
		c0.5-0.9,0.8-2.3,0.8-4.3c0-2-0.2-3.4-0.7-4.3C47.3,211.2,46.4,210.5,45.1,210.2z M45.5,216.6c0,2.7-0.5,3.3-0.8,3.4
		c-0.5,0.3-1.2,0.4-2.3,0.4h-6.6v-7.7h6.5c1,0,1.8,0.2,2.4,0.5c0.1,0,0.3,0.2,0.5,0.7C45.4,214.4,45.5,215.3,45.5,216.6z"/>
	<path class="st15" d="M61.4,210.2c-1.3,0.3-2.2,1-2.6,2c-0.5,0.9-0.7,2.4-0.7,4.3v9c0,2,0.2,3.4,0.8,4.4v0c0.5,0.9,1.3,1.6,2.3,2
		l0.8,0.3l0.6,0.1l1.5,0.1l8.2,0v-3l-8.1,0c-1.4-0.1-2-0.3-2.3-0.5c-0.2-0.1-0.8-0.7-0.8-3.4v-2.9h11.3v-3.1H61v-3
		c0-2.7,0.5-3.3,0.7-3.4c0.4-0.2,1.1-0.3,2.1-0.4l8.5,0v-3h-5.4C64.4,209.7,62.6,209.9,61.4,210.2z"/>
	<path class="st15" d="M85.9,210.2c-1.3,0.3-2.2,1-2.6,2c-0.5,0.9-0.7,2.4-0.7,4.3v9c0,2,0.2,3.4,0.8,4.4v0c0.5,0.9,1.3,1.6,2.3,2
		l0.8,0.3l0.6,0.1l1.5,0.1l8.2,0v-3l-8.1,0c-1.4-0.1-2-0.3-2.3-0.5c-0.2-0.1-0.8-0.7-0.8-3.4v-2.9h11.3v-3.1H85.5v-3
		c0-2.7,0.5-3.3,0.7-3.4c0.4-0.2,1.1-0.3,2.1-0.4l8.5,0v-3h-5.4C88.9,209.7,87.1,209.9,85.9,210.2z"/>
	<path class="st15" d="M118.5,222.8c1-0.4,1.8-1,2.4-1.9c0.5-0.9,0.7-2.3,0.7-4.4c0-2.1-0.3-3.5-0.8-4.5c-0.6-1-1.5-1.7-2.7-1.9
		c-1.1-0.2-2.8-0.4-5.1-0.4h-7v22.7h3v-9l6.1,0l4.2,9.1h3.2l-4.4-9.5L118.5,222.8z M118.7,216.5c0,1.7-0.2,2.4-0.3,2.7
		c-0.2,0.5-0.4,0.7-0.5,0.8c-0.4,0.2-1.2,0.4-2.2,0.5h-6.6v-7.7l6.9,0c1.2,0.1,1.8,0.3,2,0.4C118.1,213.2,118.7,213.7,118.7,216.5z"
		/>
	<polygon class="st15" points="161.4,211 156.8,218.9 152.2,210.9 151.4,209.7 148.9,209.7 148.9,232.4 151.8,232.4 151.8,215.9 
		155.6,222.6 158,222.6 161.9,215.9 161.9,232.4 164.7,232.4 164.7,209.7 162.2,209.7 	"/>
	<path class="st15" d="M189.2,211.2c-0.4-0.4-0.9-0.7-1.6-0.9c-0.5-0.2-1.3-0.3-2.2-0.4c-1.9-0.2-3.7-0.2-5.6,0
		c-1,0.1-1.7,0.2-2.2,0.4c-0.7,0.2-1.2,0.6-1.6,1c-0.5,0.5-0.9,1.1-1.1,1.8c-0.2,0.7-0.4,1.6-0.4,2.8l0,10.5
		c0.1,1.1,0.2,2.1,0.4,2.8c0.2,0.8,0.6,1.4,1.1,1.8c0.4,0.4,1,0.7,1.7,0.9c0.5,0.2,1.2,0.3,2.2,0.4c0.9,0.1,1.9,0.1,2.8,0.1
		c0.9,0,1.9,0,2.8-0.1c1-0.1,1.7-0.2,2.2-0.4c0.7-0.2,1.2-0.6,1.6-0.9c0.5-0.5,0.9-1.1,1.2-1.8c0.2-0.7,0.4-1.6,0.4-2.8v-10.6
		c0-1.2-0.2-2.1-0.4-2.8C190.1,212.2,189.7,211.6,189.2,211.2z M187.9,215.5v11c-0.1,1.2-0.3,1.8-0.4,2c-0.1,0-0.2,0.1-0.3,0.2
		c-0.3,0.2-0.8,0.4-1.5,0.5c-0.7,0.2-1.7,0.2-3,0.2c-1.1,0-2-0.1-2.7-0.2c-0.7-0.1-1.2-0.3-1.6-0.4c-0.4-0.2-0.5-0.3-0.5-0.3
		c-0.1-0.2-0.3-0.7-0.4-2.1l0-10.8c0.1-1.3,0.3-1.9,0.5-2.2c0,0,0.1-0.1,0.4-0.3c0.3-0.2,0.9-0.3,1.6-0.4c0.7-0.1,1.6-0.2,2.7-0.2
		c1.3,0,2.3,0.1,3,0.2c0.9,0.2,1.3,0.4,1.5,0.5c0.2,0.1,0.3,0.2,0.3,0.2C187.5,213.7,187.7,214.3,187.9,215.5z"/>
	<path class="st15" d="M213.6,226.5c-0.1,1.3-0.3,1.8-0.4,2.1c-0.1,0-0.2,0.1-0.3,0.2c-0.2,0.1-0.6,0.3-1.5,0.5
		c-0.7,0.2-1.8,0.2-3,0.2c-1.6,0-2.8-0.1-3.6-0.4c-1.1-0.3-1.2-0.5-1.2-0.5c-0.2-0.3-0.4-0.8-0.5-2.1v-16.8h-3l0,16.6
		c0.1,1.2,0.2,2.1,0.4,2.8c0.2,0.8,0.6,1.4,1.1,1.8c0.4,0.4,1,0.8,1.7,1c0.5,0.2,1.3,0.3,2.2,0.4c0.9,0.1,1.9,0.1,2.8,0.1
		c0.9,0,1.9,0,2.8-0.1c1-0.1,1.7-0.2,2.2-0.4c0.7-0.2,1.2-0.6,1.6-0.9c0.5-0.5,0.9-1.1,1.2-1.8c0.2-0.7,0.4-1.7,0.4-2.8v-16.6h-3
		L213.6,226.5z"/>
	<polygon class="st15" points="238.4,225.6 229.2,209.7 226.9,209.7 226.9,232.4 229.8,232.4 229.8,216.5 239,232.4 241.3,232.4 
		241.3,209.7 238.4,209.7 	"/>
	<polygon class="st15" points="251.6,212.8 258.3,212.8 258.3,232.4 261.4,232.4 261.4,212.8 268.1,212.8 268.1,209.7 251.6,209.7 	
		"/>
	<path class="st15" d="M292.2,212.1c-0.5-0.8-1.3-1.5-2.3-1.9c-1-0.4-2.4-0.5-4.3-0.5c-1.8,0-3.2,0.2-4.2,0.5
		c-1.1,0.4-1.9,1-2.4,1.9c-0.5,0.8-0.8,2-0.8,3.7v16.6h3v-9.6h8.9v9.6h3l0-16.7C293,214.1,292.7,212.9,292.2,212.1z M290.1,215.5
		v4.2h-8.9l0-4.1c0.1-1.3,0.3-1.9,0.4-2.1c0.2-0.3,1-0.9,4-0.9c3.2,0,3.9,0.6,4.1,0.9C289.8,213.7,290,214.2,290.1,215.5z"/>
	<rect x="305.3" y="209.7" class="st15" width="2.9" height="22.7"/>
	<polygon class="st15" points="332.2,209.7 332.2,225.6 323,209.7 320.7,209.7 320.7,232.4 323.6,232.4 323.6,216.5 332.8,232.4 
		335.1,232.4 335.1,209.7 	"/>
	<path class="st15" d="M272.5,192.6c0-1.5,0.6-2.9,1.5-3.9l-40.7-70.6c-0.4,0.1-0.8,0.1-1.3,0.1c-0.5,0-0.9-0.1-1.4-0.2l-42.3,73.3
		c0.1,0.4,0.2,0.8,0.2,1.2H272.5z"/>
	<path class="st15" d="M133.7,118.1l42.4,73.4c-0.1,0.4-0.1,0.7-0.1,1.1H92.5c0-1.7-0.8-3.2-1.9-4.3l40.5-70.2
		c0.4,0.1,0.9,0.2,1.4,0.2C132.9,118.3,133.3,118.2,133.7,118.1z"/>
	<path class="st16" d="M182.2,186.5c1.4,0,2.6,0.4,3.6,1.2l41.4-71.6c-0.5-0.6-0.9-1.3-1.1-2h-87.7c-0.3,0.8-0.7,1.5-1.2,2.1
		l41.3,71.6C179.6,187,180.8,186.5,182.2,186.5z"/>
	<path class="st17" d="M137.1,107.8c0.6,0.6,1,1.4,1.3,2.2h87.7c0.3-0.8,0.7-1.5,1.3-2.2L182.2,28L137.1,107.8z"/>
	<g class="st18">
		<g>
			<linearGradient id="SVGID_13_" gradientUnits="userSpaceOnUse" x1="87.7008" y1="63.4458" x2="87.7008" y2="147.512">
				<stop  offset="0" style="stop-color:#F1F1F2"/>
				<stop  offset="7.769299e-02" style="stop-color:#F4F4F5"/>
				<stop  offset="0.4238" style="stop-color:#FCFCFD"/>
				<stop  offset="1" style="stop-color:#FFFFFF"/>
			</linearGradient>
			<path class="st19" d="M127.8,107.9c-1,1.1-1.6,2.6-1.6,4.2c0,1.5,0.6,2.9,1.5,4L87,186.6c-0.2,0-0.5,0-0.7,0
				c-3.4,0-6.2,2.7-6.2,6.1H47.6l64.6-111.9L127.8,107.9z"/>
		</g>
	</g>
	<g class="st18">
		<g>
			<linearGradient id="SVGID_14_" gradientUnits="userSpaceOnUse" x1="276.6577" y1="63.4458" x2="276.6577" y2="147.512">
				<stop  offset="0" style="stop-color:#F1F1F2"/>
				<stop  offset="7.769299e-02" style="stop-color:#F4F4F5"/>
				<stop  offset="0.4238" style="stop-color:#FCFCFD"/>
				<stop  offset="1" style="stop-color:#FFFFFF"/>
			</linearGradient>
			<path class="st20" d="M278.7,186.5c3.4,0,6.2,2.7,6.2,6.1h31.8L252.2,80.8l-15.6,27c1,1.1,1.7,2.6,1.7,4.2c0,1.6-0.6,3-1.5,4.1
				l40.7,70.6C277.8,186.6,278.3,186.5,278.7,186.5z"/>
		</g>
	</g>
</g>
</svg>
